HIERARCHY
ROOT joint_Root
{
	OFFSET 0.0 0.0 0.0
	CHANNELS 6 Xposition Yposition Zposition Zrotation Xrotation Yrotation 
	JOINT Hips
	{
		OFFSET -17.1583 93.1646 452.98
		CHANNELS 6 Xposition Yposition Zposition Zrotation Xrotation Yrotation 
		JOINT Spine
		{
			OFFSET 15.7357 0.0 0.0
			CHANNELS 6 Xposition Yposition Zposition Zrotation Xrotation Yrotation 
			JOINT Chest
			{
				OFFSET 8.98455 -0.406207 0.0
				CHANNELS 6 Xposition Yposition Zposition Zrotation Xrotation Yrotation 
				JOINT Neck
				{
					OFFSET 16.3773 0.0 0.0
					CHANNELS 6 Xposition Yposition Zposition Zrotation Xrotation Yrotation 
					JOINT Head
					{
						OFFSET 6.45672 0.0 0.0
						CHANNELS 6 Xposition Yposition Zposition Zrotation Xrotation Yrotation 
						End Site
						{
							OFFSET 0.0 0.0 0.0
						}
					}
				}
				JOINT Shoulder_L
				{
					OFFSET 12.9942 -0.242716 4.98039
					CHANNELS 6 Xposition Yposition Zposition Zrotation Xrotation Yrotation 
					JOINT UpperArm_L
					{
						OFFSET 5.34809 0.0 0.0
						CHANNELS 6 Xposition Yposition Zposition Zrotation Xrotation Yrotation 
						JOINT LowerArm_L
						{
							OFFSET 24.3286 1.87007e-05 0.0
							CHANNELS 6 Xposition Yposition Zposition Zrotation Xrotation Yrotation 
							JOINT Hand_L
							{
								OFFSET 22.2916 0.0 0.0
								CHANNELS 6 Xposition Yposition Zposition Zrotation Xrotation Yrotation 
								End Site
								{
									OFFSET 0.0 0.0 0.0
								}
							}
						}
					}
				}
				JOINT Shoulder_R
				{
					OFFSET 12.9945 -0.242716 -4.98039
					CHANNELS 6 Xposition Yposition Zposition Zrotation Xrotation Yrotation 
					JOINT UpperArm_R
					{
						OFFSET -5.34813 0.0 0.0
						CHANNELS 6 Xposition Yposition Zposition Zrotation Xrotation Yrotation 
						JOINT LowerArm_R
						{
							OFFSET -24.3289 0.000322201 0.0
							CHANNELS 6 Xposition Yposition Zposition Zrotation Xrotation Yrotation 
							JOINT Hand_R
							{
								OFFSET -22.2915 -0.000108084 0.0
								CHANNELS 6 Xposition Yposition Zposition Zrotation Xrotation Yrotation 
								End Site
								{
									OFFSET 0.0 0.0 0.0
								}
							}
						}
					}
				}
			}
		}
		JOINT UpperLeg_L
		{
			OFFSET -2.19248 -6.46944 0.0
			CHANNELS 6 Xposition Yposition Zposition Zrotation Xrotation Yrotation 
			JOINT LowerLeg_L
			{
				OFFSET 39.0811 0.0 -1.23785e-05
				CHANNELS 6 Xposition Yposition Zposition Zrotation Xrotation Yrotation 
				JOINT Foot_L
				{
					OFFSET 40.9854 0.0 -1.26872e-05
					CHANNELS 6 Xposition Yposition Zposition Zrotation Xrotation Yrotation 
					JOINT Toes_L
					{
						OFFSET 11.7543 0.0 0.0
						CHANNELS 6 Xposition Yposition Zposition Zrotation Xrotation Yrotation 
						End Site
						{
							OFFSET 0.0 0.0 0.0
						}
					}
				}
			}
		}
		JOINT UpperLeg_R
		{
			OFFSET -2.19251 6.46944 0.0
			CHANNELS 6 Xposition Yposition Zposition Zrotation Xrotation Yrotation 
			JOINT LowerLeg_R
			{
				OFFSET -39.0811 -0.00228153 -0.0401928
				CHANNELS 6 Xposition Yposition Zposition Zrotation Xrotation Yrotation 
				JOINT Foot_R
				{
					OFFSET -40.9854 0.0 0.0
					CHANNELS 6 Xposition Yposition Zposition Zrotation Xrotation Yrotation 
					JOINT Toes_R
					{
						OFFSET -11.7543 0.0 0.0
						CHANNELS 6 Xposition Yposition Zposition Zrotation Xrotation Yrotation 
						End Site
						{
							OFFSET 0.0 0.0 0.0
						}
					}
				}
			}
		}
	}
}
MOTION
Frames:	7
Frame Time:	0.0333333
0.000000 0.000000 0.000000 0.000000 0.000000 -0.000000 -0.370541 91.594600 7.170860 88.768900 0.311174 6.294180 15.735700 0.000005 -0.000001 -94.086300 88.969800 95.279100 8.984550 -0.406207 -0.000000 -9.819670 -0.036570 2.390000 16.377300 -0.000001 -0.000001 -4.704060 -0.272520 -0.111983 6.456720 -0.000001 -0.000000 -0.291572 1.104340 -2.190790 12.994200 -0.242716 4.980390 -88.663900 -2.607540 -62.857500 5.348090 -0.000007 -0.000001 -70.634200 -57.996500 -112.483000 24.328600 0.000019 0.000005 0.000044 -16.645800 0.000001 22.291600 -0.000001 0.000005 40.786100 4.358700 18.877100 12.994500 -0.242716 -4.980390 93.349300 -6.407530 -62.327400 -5.348130 -0.000001 -0.000004 -71.930600 -59.399000 -118.707000 -24.328900 0.000322 -0.000009 -0.001109 -35.868800 -0.000215 -22.291500 -0.000108 -0.000004 39.019000 5.463710 -5.136900 -2.192480 -6.469440 -0.000000 -173.323000 -6.235860 8.506570 39.081100 -0.000007 -0.000012 0.046114 -0.140653 18.152000 40.985400 -0.000006 -0.000013 0.463941 12.826100 -73.812100 11.754300 -0.000000 0.000003 -0.002377 0.200974 -8.422620 -2.192510 6.469440 -0.000001 175.233000 4.888350 -170.406000 -39.081100 -0.002282 -0.040193 0.023243 -0.068386 16.236100 -40.985400 0.000008 0.000006 -6.026760 5.723200 -74.293900 -11.754300 -0.000006 -0.000006 -0.012168 0.286849 -4.914760
0.000000 0.000000 0.000000 0.000000 0.000000 -0.000000 -0.365885 91.604600 7.173610 88.775200 0.267004 6.237660 15.735700 0.000005 -0.000001 -94.549500 88.970200 95.745700 8.984550 -0.406207 -0.000000 -9.817860 -0.020593 2.398160 16.377300 -0.000001 -0.000001 -4.711750 -0.298020 -0.075635 6.456720 -0.000001 -0.000000 -0.218376 1.094470 -2.179140 12.994200 -0.242716 4.980390 -88.660600 -2.613090 -62.849700 5.348090 -0.000007 -0.000001 -70.451100 -57.939000 -112.442000 24.328600 0.000019 0.000005 0.000043 -16.533200 0.000001 22.291600 -0.000001 0.000005 40.789800 4.357380 18.898100 12.994500 -0.242716 -4.980390 93.341800 -6.396070 -62.338500 -5.348130 -0.000001 -0.000004 -72.074700 -59.250600 -118.842000 -24.328900 0.000322 -0.000009 -0.001112 -35.699500 -0.000213 -22.291500 -0.000108 -0.000004 39.055400 5.464470 -5.165160 -2.192480 -6.469440 -0.000000 -173.340000 -6.261240 8.510580 39.081100 -0.000007 -0.000012 0.046329 -0.142068 18.061500 40.985400 -0.000006 -0.000013 0.444782 12.781100 -73.834200 11.754300 -0.000000 0.000003 -0.002642 0.204111 -8.294990 -2.192510 6.469440 -0.000001 175.228000 4.879550 -170.427000 -39.081100 -0.002282 -0.040193 0.021658 -0.063280 16.154600 -40.985400 0.000008 0.000006 -6.041730 5.747030 -74.239700 -11.754300 -0.000006 -0.000006 -0.012184 0.286958 -4.910270
0.000000 0.000000 0.000000 0.000000 0.000000 -0.000000 -0.362607 91.606600 7.183800 88.762400 0.248366 6.157240 15.735700 0.000005 -0.000001 -94.092700 88.957600 95.298600 8.984550 -0.406207 -0.000000 -9.844030 -0.036889 2.416410 16.377300 -0.000001 -0.000001 -4.657400 -0.280006 -0.102261 6.456720 -0.000001 -0.000000 -0.201658 1.043380 -2.095740 12.994200 -0.242716 4.980390 -88.645200 -2.638250 -62.805800 5.348090 -0.000007 -0.000001 -70.763300 -57.738900 -112.743000 24.328600 0.000019 0.000005 0.000044 -16.388900 0.000001 22.291600 -0.000001 0.000005 40.795300 4.355370 18.929600 12.994500 -0.242716 -4.980390 93.359400 -6.423640 -62.314900 -5.348130 -0.000001 -0.000004 -72.025300 -59.114000 -118.798000 -24.328900 0.000322 -0.000009 -0.001103 -35.640100 -0.000213 -22.291500 -0.000108 -0.000004 38.860000 5.461790 -5.066640 -2.192480 -6.469440 -0.000000 -173.353000 -6.247760 8.445680 39.081100 -0.000007 -0.000012 0.046791 -0.143664 18.040400 40.985400 -0.000006 -0.000013 0.450780 12.756800 -73.802900 11.754300 -0.000000 0.000003 -0.002553 0.203067 -8.337450 -2.192510 6.469440 -0.000001 175.229000 4.914750 -170.505000 -39.081100 -0.002282 -0.040193 0.021902 -0.064165 16.144100 -40.985400 0.000008 0.000006 -6.104540 5.798320 -74.220800 -11.754300 -0.000006 -0.000006 -0.012127 0.286566 -4.926340
0.000000 0.000000 0.000000 0.000000 0.000000 -0.000000 -0.351852 91.604500 7.204650 88.767900 0.219053 6.127730 15.735700 0.000005 -0.000001 -94.141900 88.957400 95.351900 8.984550 -0.406207 -0.000000 -9.844340 -0.035685 2.424500 16.377300 -0.000001 -0.000001 -4.595800 -0.306792 -0.049134 6.456720 -0.000001 -0.000000 -0.230228 1.071710 -2.160120 12.994200 -0.242716 4.980390 -88.666000 -2.594150 -62.773300 5.348090 -0.000007 -0.000001 -70.597600 -57.638700 -112.734000 24.328600 0.000019 0.000005 0.000048 -16.616500 0.000001 22.291600 -0.000001 0.000005 40.683600 4.361640 18.831300 12.994500 -0.242716 -4.980390 93.372200 -6.430620 -62.251000 -5.348130 -0.000001 -0.000004 -71.918400 -58.959500 -118.744000 -24.328900 0.000322 -0.000009 -0.001111 -35.663800 -0.000213 -22.291500 -0.000108 -0.000004 38.874800 5.459250 -4.973600 -2.192480 -6.469440 -0.000000 -173.356000 -6.285840 8.457200 39.081100 -0.000007 -0.000012 0.046368 -0.142623 18.009900 40.985400 -0.000006 -0.000013 0.454866 12.768600 -73.827200 11.754300 -0.000000 0.000003 -0.002531 0.202811 -8.347890 -2.192510 6.469440 -0.000001 175.229000 4.858040 -170.506000 -39.081100 -0.002282 -0.040193 0.021138 -0.061649 16.113000 -40.985400 0.000008 0.000006 -6.107310 5.781650 -74.209700 -11.754300 -0.000006 -0.000006 -0.012120 0.286517 -4.928330
0.000000 0.000000 0.000000 0.000000 0.000000 -0.000000 -0.339207 91.596800 7.239860 88.770000 0.232306 6.150280 15.735700 0.000005 -0.000001 -93.436300 88.982300 94.647900 8.984550 -0.406207 -0.000000 -9.795930 -0.063919 2.425290 16.377300 -0.000001 -0.000001 -4.520540 -0.303454 -0.081671 6.456720 -0.000001 -0.000000 -0.338587 1.050890 -2.106150 12.994200 -0.242716 4.980390 -88.653400 -2.614310 -62.734500 5.348090 -0.000007 -0.000001 -70.607400 -57.566700 -112.757000 24.328600 0.000019 0.000005 0.000045 -16.614600 0.000001 22.291600 -0.000001 0.000005 40.683900 4.365170 18.775300 12.994500 -0.242716 -4.980390 93.376200 -6.420700 -62.186300 -5.348130 -0.000001 -0.000004 -71.920000 -58.831600 -118.769000 -24.328900 0.000322 -0.000009 -0.001109 -35.549000 -0.000212 -22.291500 -0.000108 -0.000004 38.887300 5.459480 -4.982190 -2.192480 -6.469440 -0.000000 -173.374000 -6.249050 8.493320 39.081100 -0.000007 -0.000012 0.046780 -0.143752 18.026200 40.985400 -0.000006 -0.000013 0.458301 12.720700 -73.859000 11.754300 -0.000000 0.000003 -0.002621 0.203868 -8.304860 -2.192510 6.469440 -0.000001 175.202000 4.866350 -170.476000 -39.081100 -0.002282 -0.040193 0.020302 -0.058624 16.147700 -40.985400 0.000008 0.000006 -6.238710 5.815310 -74.248600 -11.754300 -0.000006 -0.000006 -0.012283 0.287640 -4.882330
0.000000 0.000000 0.000000 0.000000 0.000000 -0.000000 -0.333543 91.587500 7.267500 88.768900 0.233797 6.109900 15.735700 0.000005 -0.000001 -93.019400 88.979900 94.227500 8.984550 -0.406207 -0.000000 -9.801340 -0.077926 2.417160 16.377300 -0.000001 -0.000001 -4.519770 -0.320975 -0.037638 6.456720 -0.000001 -0.000000 -0.392501 1.086990 -2.112300 12.994200 -0.242716 4.980390 -88.647900 -2.621790 -62.706200 5.348090 -0.000007 -0.000001 -70.840000 -57.472700 -112.980000 24.328600 0.000019 0.000005 0.000044 -16.617400 0.000001 22.291600 -0.000001 0.000005 40.824600 4.354780 18.938900 12.994500 -0.242716 -4.980390 93.396600 -6.449820 -62.150400 -5.348130 -0.000001 -0.000004 -71.813200 -58.801600 -118.672000 -24.328900 0.000322 -0.000009 -0.001107 -35.497800 -0.000212 -22.291500 -0.000108 -0.000004 38.912000 5.459860 -4.995950 -2.192480 -6.469440 -0.000000 -173.375000 -6.274310 8.447830 39.081100 -0.000007 -0.000012 0.048048 -0.147205 18.076900 40.985400 -0.000006 -0.000013 0.472391 12.735900 -73.919800 11.754300 -0.000000 0.000003 -0.002726 0.205092 -8.255060 -2.192510 6.469440 -0.000001 175.212000 4.847080 -170.496000 -39.081100 -0.002282 -0.040193 0.020853 -0.060518 16.150000 -40.985400 0.000008 0.000006 -6.162340 5.786380 -74.270500 -11.754300 -0.000006 -0.000006 -0.011928 0.285189 -4.982720
0.000000 0.000000 0.000000 0.000000 0.000000 -0.000000 -0.322556 91.587100 7.306350 88.789900 0.232242 6.068450 15.735700 0.000005 -0.000001 -93.323400 88.974000 94.519400 8.984550 -0.406207 -0.000000 -9.812860 -0.064733 2.393910 16.377300 -0.000001 -0.000001 -4.472860 -0.324825 -0.028772 6.456720 -0.000001 -0.000000 -0.492120 1.079190 -2.105710 12.994200 -0.242716 4.980390 -88.656800 -2.601370 -62.677700 5.348090 -0.000007 -0.000001 -70.721400 -57.459600 -112.959000 24.328600 0.000019 0.000005 0.000054 -16.624500 0.000001 22.291600 -0.000001 0.000005 40.674200 4.359440 18.865600 12.994500 -0.242716 -4.980390 93.404100 -6.440890 -62.064800 -5.348130 -0.000001 -0.000004 -72.014800 -58.703600 -118.868000 -24.328900 0.000322 -0.000009 -0.001107 -35.307100 -0.000210 -22.291500 -0.000108 -0.000004 38.981300 5.455260 -4.828570 -2.192480 -6.469440 -0.000000 -173.402000 -6.292140 8.468480 39.081100 -0.000007 -0.000012 0.047356 -0.145741 18.000700 40.985400 -0.000006 -0.000013 0.476759 12.745100 -73.888400 11.754300 -0.000000 0.000003 -0.002614 0.203791 -8.308010 -2.192510 6.469440 -0.000001 175.170000 4.861610 -170.492000 -39.081100 -0.002282 -0.040193 0.019763 -0.056901 16.110400 -40.985400 0.000008 0.000006 -6.221530 5.826650 -74.273400 -11.754300 -0.000006 -0.000006 -0.012214 0.287167 -4.901720
